<?xml version="1.0" encoding="UTF-8" standalone="no"?>
<!-- Created with Inkscape (http://www.inkscape.org/) -->
<!-- ClipArt by Arvin61r58 (http://openclipart.org/user-detail/Arvin61r58) -->
<svg
   xmlns:dc="http://purl.org/dc/elements/1.1/"
   xmlns:cc="http://creativecommons.org/ns#"
   xmlns:rdf="http://www.w3.org/1999/02/22-rdf-syntax-ns#"
   xmlns:svg="http://www.w3.org/2000/svg"
   xmlns="http://www.w3.org/2000/svg"
   xmlns:xlink="http://www.w3.org/1999/xlink"
   id="svg1173"
   version="1.1"
   viewBox="0 0 54.239583 54.239585"
   height="205"
   width="205">
  <title
     id="title192">Smiley - Tongue</title>
  <defs
     id="defs1167">
    <linearGradient
       gradientTransform="matrix(0.26479517,0,0,0.26458334,12.699779,222.39807)"
       gradientUnits="userSpaceOnUse"
       y2="210.87587"
       x2="89.684662"
       y1="145.8166"
       x1="14.770402"
       id="linearGradient13050"
       xlink:href="#linearGradient12888" />
    <linearGradient
       id="linearGradient12888">
      <stop
         stop-color="#f1e033"
         offset="0"
         id="stop12858" />
      <stop
         stop-color="#f3e135"
         offset="0.071429"
         id="stop12860" />
      <stop
         stop-color="#f6e32f"
         offset="0.142857"
         id="stop12862" />
      <stop
         stop-color="#f7e631"
         offset="0.214286"
         id="stop12864" />
      <stop
         stop-color="#faea2c"
         offset="0.285714"
         id="stop12866" />
      <stop
         stop-color="#f9e829"
         offset="0.357143"
         id="stop12868" />
      <stop
         stop-color="#f2e024"
         offset="0.428571"
         id="stop12870" />
      <stop
         stop-color="#ebda1e"
         offset="0.5"
         id="stop12872" />
      <stop
         stop-color="#e5d41b"
         offset="0.571429"
         id="stop12874" />
      <stop
         stop-color="#e3d21a"
         offset="0.642857"
         id="stop12876" />
      <stop
         stop-color="#dfcf17"
         offset="0.714286"
         id="stop12878" />
      <stop
         stop-color="#d8c914"
         offset="0.785714"
         id="stop12880" />
      <stop
         stop-color="#d4c312"
         offset="0.857143"
         id="stop12882" />
      <stop
         stop-color="#d1c10f"
         offset="0.928571"
         id="stop12884" />
      <stop
         stop-color="#cfbb0e"
         offset="1"
         id="stop12886" />
    </linearGradient>
  </defs>
  <metadata
     id="metadata1170">
    <rdf:RDF>
      <cc:Work
         rdf:about="">
        <dc:format>image/svg+xml</dc:format>
        <dc:type
           rdf:resource="http://purl.org/dc/dcmitype/StillImage" />
        <dc:title>Smiley - Tongue</dc:title>
        <cc:license
           rdf:resource="http://creativecommons.org/publicdomain/zero/1.0/" />
        <dc:creator>
          <cc:Agent>
            <dc:title>Arvin61r58</dc:title>
          </cc:Agent>
        </dc:creator>
        <dc:publisher>
          <cc:Agent>
            <dc:title>Openclipart.org</dc:title>
          </cc:Agent>
        </dc:publisher>
        <dc:identifier>https://openclipart.org/</dc:identifier>
        <dc:source>https://openclipart.org/user-detail/Arvin61r58</dc:source>
        <dc:subject>
          <rdf:Bag>
            <rdf:li>smiley</rdf:li>
            <rdf:li>emoji</rdf:li>
            <rdf:li>emoticon</rdf:li>
            <rdf:li>face</rdf:li>
            <rdf:li>icon</rdf:li>
            <rdf:li>tongue</rdf:li>
            <rdf:li>rude</rdf:li>
          </rdf:Bag>
        </dc:subject>
        <dc:description>stick out tongue emoticon</dc:description>
      </cc:Work>
      <cc:License
         rdf:about="http://creativecommons.org/publicdomain/zero/1.0/">
        <cc:permits
           rdf:resource="http://creativecommons.org/ns#Reproduction" />
        <cc:permits
           rdf:resource="http://creativecommons.org/ns#Distribution" />
        <cc:permits
           rdf:resource="http://creativecommons.org/ns#DerivativeWorks" />
      </cc:License>
    </rdf:RDF>
  </metadata>
  <g
     transform="translate(0,-242.7604)"
     id="layer1">
    <g
       style="stroke-width:0.5"
       transform="matrix(2,0,0,2,-25.288873,-269.61565)"
       id="g518">
      <title
         id="title520">Stick Out Tongue Smiley  --  by Arvin61r58</title>
      <path
         style="fill:url(#linearGradient13050);fill-opacity:1;fill-rule:nonzero;stroke:none;stroke-width:0.26458335px;stroke-linecap:round;stroke-linejoin:round;stroke-miterlimit:4;stroke-dasharray:none;stroke-opacity:1"
         d="m 39.433499,269.7479 v 0.6985 l -0.127102,1.3335 -0.275387,1.29117 -0.381305,1.24883 -0.508407,1.18534 -0.614324,1.12183 -0.699059,1.05833 -0.826161,0.97367 -0.889712,0.889 -0.974446,0.8255 -1.059181,0.6985 -1.122732,0.61383 -1.186282,0.508 -1.249833,0.381 -1.2922,0.27517 -1.334568,0.127 h -0.699059 -0.677875 l -1.334568,-0.127 -1.292201,-0.27517 -1.249833,-0.381 -1.186283,-0.508 -1.122731,-0.61383 -1.059181,-0.6985 -0.974446,-0.8255 -0.889711,-0.889 -0.826161,-0.97367 -0.699059,-1.05833 -0.614326,-1.12183 -0.508407,-1.18534 -0.381305,-1.24883 -0.275386,-1.29117 -0.127102,-1.3335 v -0.6985 -0.67733 l 0.127102,-1.3335 0.275386,-1.29117 0.381305,-1.24883 0.508407,-1.18533 0.614326,-1.12184 0.699059,-1.05833 0.826161,-0.97367 0.889711,-0.889 0.974446,-0.8255 1.059181,-0.6985 1.122731,-0.61383 1.186283,-0.508 1.249833,-0.381 1.292201,-0.27517 1.334568,-0.127 0.677875,-0.0212 0.699059,0.0212 1.334568,0.127 1.2922,0.27517 1.249833,0.381 1.186282,0.508 1.122732,0.61383 1.059181,0.6985 0.974446,0.8255 0.889712,0.889 0.826161,0.97367 0.699059,1.05833 0.614324,1.12184 0.508407,1.18533 0.381305,1.24883 0.275387,1.29117 0.127102,1.3335 z"
         id="path75" />
      <g
         style="stroke-width:0.5"
         id="g507"
         transform="translate(0.0105805)">
        <path
           id="path77"
           d="m 20.277667,267.5889 -0.1905,-0.27516 -0.338667,-0.635 -0.211666,-0.67734 -0.105834,-0.71966 v -0.74084 l 0.105834,-0.71966 0.211666,-0.6985 0.338667,-0.635 0.1905,-0.27517 0.254,-0.29633 0.550333,-0.33867 0.550334,-0.0847 0.529166,0.16934 0.486834,0.40216 0.402166,0.61384 0.296334,0.762 0.148166,0.9525 0.02117,0.508 -0.02117,0.52916 -0.148166,0.93134 -0.296334,0.78316 -0.402166,0.59267 -0.486834,0.40217 -0.529166,0.16933 -0.550334,-0.0635 -0.550333,-0.35983 z"
           style="fill:#e3e3e3;fill-opacity:1;fill-rule:nonzero;stroke:none;stroke-width:0.13229167" />
        <path
           id="path79"
           d="m 22.479,265.66274 -0.02117,0.27516 -0.148167,0.48684 -0.275167,0.35983 -0.359833,0.21167 -0.211667,0.0212 -0.1905,-0.0212 -0.381,-0.21167 -0.254,-0.35983 -0.169333,-0.48684 v -0.27516 -0.27517 l 0.169333,-0.48683 0.254,-0.35984 0.381,-0.1905 0.1905,-0.0212 0.211667,0.0212 0.359833,0.1905 0.275167,0.35984 0.148167,0.48683 z"
           style="fill:#000000;fill-opacity:1;fill-rule:nonzero;stroke:none;stroke-width:0.13229167" />
        <path
           id="path81"
           d="M 29.739167,267.5889 29.5275,267.31374 29.21,266.67874 28.998334,266.0014 28.8925,265.28174 v -0.74084 l 0.105834,-0.71966 0.211666,-0.6985 0.3175,-0.635 0.211667,-0.27517 0.254,-0.29633 0.529167,-0.33867 0.550333,-0.0847 0.529167,0.16934 0.486833,0.40216 0.402167,0.61384 0.296333,0.762 0.148167,0.9525 0.02117,0.508 -0.02117,0.52916 -0.148167,0.93134 -0.296333,0.78316 -0.402167,0.59267 -0.486833,0.40217 -0.529167,0.16933 -0.550333,-0.0635 -0.529167,-0.35983 z"
           style="fill:#e3e3e3;fill-opacity:1;fill-rule:nonzero;stroke:none;stroke-width:0.13229167" />
        <path
           id="path83"
           d="m 31.919334,265.66274 v 0.27516 l -0.169334,0.48684 -0.254,0.35983 -0.381,0.21167 -0.1905,0.0212 -0.211666,-0.0212 -0.359834,-0.21167 -0.275166,-0.35983 -0.148167,-0.48684 -0.02117,-0.27516 0.02117,-0.27517 0.148167,-0.48683 0.275166,-0.35984 0.359834,-0.1905 0.211666,-0.0212 0.1905,0.0212 0.381,0.1905 0.254,0.35984 0.169334,0.48683 z"
           style="fill:#000000;fill-opacity:1;fill-rule:nonzero;stroke:none;stroke-width:0.13229167" />
        <path
           id="path85"
           d="m 21.949834,275.61107 0.9525,0.889 1.524,1.27 0.8255,0.381 0.5715,0.14817 0.296333,0.0212 0.296333,-0.0212 0.592667,-0.127 0.804333,-0.40217 1.545167,-1.24883 0.9525,-0.91017 0.762,-0.762 1.143,-1.41817 0.402167,-0.65616 -0.02117,-0.0847 -0.338667,0.0423 -1.883833,0.78317 -0.889,0.27517 -0.8255,0.16933 -1.693333,0.21167 -0.846667,0.0212 -0.8255,-0.0212 -1.693333,-0.21167 -0.8255,-0.16933 -0.8255,-0.27517 -1.312334,-0.55033 -0.656166,-0.23284 -0.169334,-0.0212 -0.04233,0.0423 0.02117,0.1905 0.275166,0.48683 0.6985,0.91017 0.804334,0.91017 z"
           style="fill:#2d2c02;fill-opacity:1;fill-rule:nonzero;stroke:none;stroke-width:0.13229167" />
        <path
           id="path87"
           d="m 22.881167,275.03957 v 2.286 l 0.02117,0.59267 0.127,1.10066 0.254,1.016 0.359833,0.889 0.4445,0.762 0.529167,0.61384 0.592666,0.42333 0.635,0.23283 0.359834,0.0212 0.338666,-0.0212 0.635,-0.23283 0.592667,-0.42333 0.529167,-0.61384 0.4445,-0.762 0.359833,-0.889 0.254,-1.016 0.127,-1.10066 0.02117,-0.59267 v -2.286 z"
           style="fill:#d30000;fill-opacity:1;fill-rule:nonzero;stroke:none;stroke-width:0.13229167" />
        <path
           id="path89"
           d="m 25.929167,275.03957 v 7.89517 l 0.127,0.0212 0.148167,0.0212 0.127,-0.0212 0.127,-0.0212 v -7.89517 z"
           style="fill:#b20000;fill-opacity:1;fill-rule:nonzero;stroke:none;stroke-width:0.13229167" />
      </g>
    </g>
  </g>
</svg>
